<svg xmlns="http://www.w3.org/2000/svg" viewBox="0 0 64 64" role="img" aria-label="KS">
  <rect width="64" height="64" rx="12" fill="#05060a"/>
  <path d="M12 47V17h7v12.2L31 17h8.8L26.2 30.3 40.4 47h-9L19 32.2V47h-7Z" fill="#d7b46a"/>
  <path d="M39.4 48c-3.6 0-6.9-.8-9.9-2.3l2.1-5.9c2.7 1.3 5.4 2 8 2 3.1 0 4.7-1 4.7-3 0-1.1-.5-1.9-1.4-2.5-.9-.6-2.5-1.3-4.9-2.1-5.3-1.8-8-4.7-8-8.7 0-2.7 1-4.9 3.1-6.5 2.1-1.6 4.9-2.4 8.4-2.4 3.2 0 6 .6 8.5 1.8l-1.9 5.8c-2.3-1-4.5-1.5-6.7-1.5-2.7 0-4.1.9-4.1 2.6 0 .9.4 1.7 1.3 2.3.9.6 2.6 1.3 5.1 2.2 5.3 1.9 7.9 4.8 7.9 8.8 0 2.9-1.1 5.2-3.3 6.9-2.1 1.7-5.1 2.5-8.9 2.5Z" fill="#f4f3ec"/>
</svg>
